<svg width="24" height="24" viewBox="0 0 24 24" fill="none" xmlns="http://www.w3.org/2000/svg">
<path d="M12 16.5C14.4853 16.5 16.5 14.4853 16.5 12C16.5 9.51472 14.4853 7.5 12 7.5C9.51472 7.5 7.5 9.51472 7.5 12C7.5 14.4853 9.51472 16.5 12 16.5Z" stroke="#BCBCBC" stroke-width="2" stroke-linecap="round" stroke-linejoin="round"/>
<path d="M17.2203 6.10315C17.4578 6.3219 17.6828 6.5469 17.8953 6.77815L20.4547 7.14377C20.8717 7.86799 21.1931 8.6432 21.4109 9.45002L19.8547 11.5219C19.8547 11.5219 19.8828 12.1594 19.8547 12.4781L21.4109 14.55C21.1941 15.3572 20.8726 16.1325 20.4547 16.8563L17.8953 17.2219C17.8953 17.2219 17.4547 17.6813 17.2203 17.8969L16.8547 20.4563C16.1305 20.8733 15.3553 21.1947 14.5484 21.4125L12.4766 19.8563C12.1584 19.8844 11.8384 19.8844 11.5203 19.8563L9.44843 21.4125C8.64127 21.1957 7.86594 20.8742 7.14218 20.4563L6.77656 17.8969C6.54531 17.6781 6.32031 17.4531 6.10156 17.2219L3.54219 16.8563C3.12517 16.132 2.80375 15.3568 2.58594 14.55L4.14219 12.4781C4.14219 12.4781 4.11406 11.8406 4.14219 11.5219L2.58594 9.45002C2.80274 8.64285 3.12421 7.86752 3.54219 7.14377L6.10156 6.77815C6.32031 6.5469 6.54531 6.3219 6.77656 6.10315L7.14218 3.54377C7.86641 3.12676 8.64161 2.80533 9.44843 2.58752L11.5203 4.14377C11.8384 4.11564 12.1584 4.11564 12.4766 4.14377L14.5484 2.58752C15.3556 2.80432 16.1309 3.1258 16.8547 3.54377L17.2203 6.10315Z" stroke="#BCBCBC" stroke-width="2" stroke-linecap="round" stroke-linejoin="round"/>
</svg>
